<svg width="38" height="54" fill="none" xmlns="http://www.w3.org/2000/svg"><path d="M34.987 9.248C31.71 3.592 25.889.137 19.415.005a20.2 20.2 0 00-.83 0C12.11.137 6.29 3.592 3.013 9.248c-3.35 5.78-3.441 12.725-.245 18.575l13.39 24.51.019.032A3.225 3.225 0 0019 54.001a3.225 3.225 0 002.842-1.668l13.39-24.51c3.196-5.85 3.105-12.794-.245-18.575zM19 24.469c-4.187 0-7.594-3.406-7.594-7.594 0-4.187 3.407-7.593 7.594-7.593s7.594 3.406 7.594 7.593c0 4.188-3.407 7.594-7.594 7.594z" fill="#EF255B"/></svg>