<svg width="38" height="54" viewBox="0 0 38 54" fill="none" xmlns="http://www.w3.org/2000/svg">
<path d="M34.9869 9.24766C31.7096 3.59201 25.8886 0.136746 19.4154 0.00469873C19.1391 -0.000996582 18.861 -0.000996582 18.5846 0.00469873C12.1115 0.136746 6.29049 3.59201 3.01315 9.24766C-0.336746 15.0286 -0.428398 21.9727 2.76794 27.8231L16.1586 52.3327C16.1646 52.3436 16.1706 52.3544 16.1768 52.3652C16.766 53.3892 17.8214 54.0005 19.0002 54.0005C20.1789 54.0005 21.2344 53.3891 21.8234 52.3652C21.8296 52.3544 21.8356 52.3436 21.8416 52.3327L35.2323 27.8231C38.4284 21.9727 38.3367 15.0286 34.9869 9.24766ZM19 24.4692C14.8128 24.4692 11.4062 21.0627 11.4062 16.8755C11.4062 12.6883 14.8128 9.28173 19 9.28173C23.1872 9.28173 26.5938 12.6883 26.5938 16.8755C26.5938 21.0627 23.1873 24.4692 19 24.4692Z" fill="#EF255B"/>
</svg>
